<svg height="464pt" viewBox="0 -64 464 464" width="464pt" xmlns="http://www.w3.org/2000/svg"><path d="m80 0h88v32h-88zm0 0" fill="#939390"/><path d="m296 0h88v32h-88zm0 0" fill="#939390"/><path d="m0 176 16 160h176l16-88c0-13.253906 10.746094-24 24-24s24 10.746094 24 24l16 88h176l16-160zm0 0" fill="#f4f4e6"/><path d="m160 304h-112l-8-96h136zm0 0" fill="#2d75bb"/><path d="m304 304h112l8-96h-136zm0 0" fill="#e1462b"/><path d="m64 176h-48l64-176h48zm0 0" fill="#d8d8d2"/><path d="m400 176h48l-64-176h-48zm0 0" fill="#d8d8d2"/><g fill="#b5b5b1"><path d="m96 88h-48l32-88h48zm0 0"/><path d="m368 88h48l-32-88h-48zm0 0"/></g></svg>