<svg height="464pt" viewBox="0 -24 464 464" width="464pt" xmlns="http://www.w3.org/2000/svg"><path d="m448 144-4.71875 80-6.5625 112-4.71875 80h-160l-4.71875-80-6.5625-112-4.71875-80zm0 0" fill="#e1462b"/><path d="m443.28125 224-6.5625 112h-169.4375l-6.5625-112zm0 0" fill="#f98c96"/><path d="m24 320h192c8.835938 0 16 7.164062 16 16s-7.164062 16-16 16h-192c-8.835938 0-16-7.164062-16-16s7.164062-16 16-16zm0 0" fill="#e1462b"/><path d="m16 352h208c8.835938 0 16 7.164062 16 16v32c0 8.835938-7.164062 16-16 16h-208c-8.835938 0-16-7.164062-16-16v-32c0-8.835938 7.164062-16 16-16zm0 0" fill="#d3843d"/><path d="m224 320h-208c-8.835938 0-16-7.164062-16-16 0-35.34375 24-80 80-80h88c48 0 72 44.65625 72 80 0 8.835938-7.164062 16-16 16zm0 0" fill="#d3843d"/><path d="m240 96h224v48h-224zm0 0" fill="#f98c96"/><path d="m408 280c0 30.929688-25.070312 56-56 56s-56-25.070312-56-56 25.070312-56 56-56 56 25.070312 56 56zm0 0" fill="#b11e48"/><path d="m400 392h-24c-4.417969 0-8-3.582031-8-8s3.582031-8 8-8h24c4.417969 0 8 3.582031 8 8s-3.582031 8-8 8zm0 0" fill="#fff"/><path d="m344 392h-8c-4.417969 0-8-3.582031-8-8s3.582031-8 8-8h8c4.417969 0 8 3.582031 8 8s-3.582031 8-8 8zm0 0" fill="#fff"/><path d="m176 0v32h112l24 64h40l-40-96zm0 0" fill="#b11e48"/><path d="m200 384-120-32h136zm0 0" fill="#fcf05a"/><g fill="#ffd782"><path d="m88 264h-8c-4.417969 0-8-3.582031-8-8s3.582031-8 8-8h8c4.417969 0 8 3.582031 8 8s-3.582031 8-8 8zm0 0"/><path d="m56 296h-8c-4.417969 0-8-3.582031-8-8s3.582031-8 8-8h8c4.417969 0 8 3.582031 8 8s-3.582031 8-8 8zm0 0"/><path d="m104 296h-8c-4.417969 0-8-3.582031-8-8s3.582031-8 8-8h8c4.417969 0 8 3.582031 8 8s-3.582031 8-8 8zm0 0"/><path d="m152 296h-8c-4.417969 0-8-3.582031-8-8s3.582031-8 8-8h8c4.417969 0 8 3.582031 8 8s-3.582031 8-8 8zm0 0"/><path d="m200 296h-8c-4.417969 0-8-3.582031-8-8s3.582031-8 8-8h8c4.417969 0 8 3.582031 8 8s-3.582031 8-8 8zm0 0"/><path d="m128 264h-8c-4.417969 0-8-3.582031-8-8s3.582031-8 8-8h8c4.417969 0 8 3.582031 8 8s-3.582031 8-8 8zm0 0"/><path d="m168 264h-8c-4.417969 0-8-3.582031-8-8s3.582031-8 8-8h8c4.417969 0 8 3.582031 8 8s-3.582031 8-8 8zm0 0"/></g></svg>